<?xml version="1.0" standalone="no"?>
<!DOCTYPE svg PUBLIC "-//W3C//DTD SVG 20010904//EN"
 "http://www.w3.org/TR/2001/REC-SVG-20010904/DTD/svg10.dtd">
<svg version="1.0" xmlns="http://www.w3.org/2000/svg"
 width="89.000000pt" height="54.000000pt" viewBox="0 0 89.000000 54.000000"
 preserveAspectRatio="xMidYMid meet">

<g transform="translate(0.000000,54.000000) scale(0.100000,-0.100000)"
fill="#e85830" stroke="none">
<path d="M200 460 c0 -26 3 -30 29 -30 31 0 41 -13 33 -42 -3 -12 -14 -18 -33
-18 -25 0 -29 -4 -29 -29 0 -25 -5 -30 -35 -35 -28 -6 -35 -11 -35 -30 0 -24
-17 -36 -51 -36 -17 0 -19 -8 -19 -85 l0 -85 35 0 35 0 0 61 0 60 33 -3 c32
-3 32 -4 35 -60 3 -55 4 -58 35 -66 22 -6 33 -16 37 -33 5 -22 11 -24 68 -27
l62 -3 0 31 c0 32 -9 35 -97 30 -27 -1 -33 3 -39 24 -3 14 -3 29 0 35 4 7 66
10 169 8 l162 -2 3 -33 c3 -32 2 -34 -30 -32 -89 5 -98 2 -98 -30 l0 -31 62 3
c61 3 63 4 68 33 4 25 10 30 38 33 l32 3 0 60 0 60 33 -3 c32 -3 32 -4 35 -60
3 -57 4 -58 32 -58 24 0 30 4 31 23 0 12 1 45 3 72 3 61 -7 85 -39 85 -18 0
-24 6 -27 28 -2 22 -8 28 -35 30 -29 3 -33 7 -33 33 0 27 -3 29 -35 29 -32 0
-35 2 -35 30 0 28 3 30 35 30 32 0 35 2 35 31 0 28 -2 30 -32 27 -28 -2 -34
-8 -36 -30 -3 -23 -8 -28 -32 -28 -24 0 -29 -5 -32 -27 l-3 -28 -102 -3 -103
-3 0 31 c0 28 -3 30 -35 30 -32 0 -35 2 -35 30 0 27 -3 30 -30 30 -27 0 -30
-3 -30 -30z m130 -180 c0 -27 -3 -30 -29 -30 -34 0 -45 12 -36 40 4 14 15 20
36 20 26 0 29 -3 29 -30z m270 0 c0 -27 -3 -30 -30 -30 -27 0 -30 3 -30 30 0
27 3 30 30 30 27 0 30 -3 30 -30z"/>
</g>
</svg>
